# xmcd
#
# Track frame offsets:
#	150
#	15704
#	36376
#	52714
#	65564
#	83560
#	96022
#	111144
#	122651
#
# Disc length: 2404 seconds
#
# Revision: 0
# Processed by: cddbd v1.5.2PL0 Copyright (c) Steve Scherf et al.
# Submitted via: EasyCDDAExtractor 10.2.0.1
#
DISCID=69096209
DTITLE=Various Artist - The Disc Vol. 13
DYEAR=2002
DGENRE=Gospel
TTITLE0=Mike Manuel - Country, Just Not The Neon Kind
TTITLE1=Billy Chernoff - Blue Water Sailor
TTITLE2=Ken Holloway - How Do I Forgive Myself
TTITLE3=Ronnie Yawn - Not Quite
TTITLE4=Joe Banks - A Coal Miners Plea
TTITLE5=Twice Robin - I'll Never Turn Away
TTITLE6=Melanie Walker - Surely, Goodness and Mercy
TTITLE7=Sally Cowan - Keep On, Keeping On
TTITLE8=Fred Bacher - Son Country Radio Show Demo
EXTD=
EXTT0=
EXTT1=
EXTT2=
EXTT3=
EXTT4=
EXTT5=
EXTT6=
EXTT7=
EXTT8=
PLAYORDER=
